<?xml version="1.0" encoding="utf-8"?>
<!-- Generator: Adobe Illustrator 16.0.0, SVG Export Plug-In . SVG Version: 6.00 Build 0)  -->
<!DOCTYPE svg PUBLIC "-//W3C//DTD SVG 1.1//EN" "http://www.w3.org/Graphics/SVG/1.1/DTD/svg11.dtd">
<svg version="1.1" id="Livello_1" xmlns="http://www.w3.org/2000/svg" xmlns:xlink="http://www.w3.org/1999/xlink" x="0px" y="0px"
	 width="283.465px" height="127.559px" viewBox="0 0 283.465 127.559" enable-background="new 0 0 283.465 127.559"
	 xml:space="preserve">
<g>
	<g>
		<path fill-rule="evenodd" clip-rule="evenodd" fill="#2F87A7" d="M173.242,64.546l3.701-0.117
			c-0.006-1.331,0.082-2.646,0.254-3.938l-3.648-0.593C173.332,61.424,173.229,62.979,173.242,64.546z"/>
		<path fill-rule="evenodd" clip-rule="evenodd" fill="#69ACDF" d="M172.986,43.177c1.02-1.537,2.145-3.004,3.371-4.382
			l-3.734-3.511c-1.455,1.629-2.783,3.357-3.979,5.182L172.986,43.177z"/>
		<path fill-rule="evenodd" clip-rule="evenodd" fill="#294F5F" d="M169.492,49.741c0.695-1.673,1.502-3.296,2.422-4.851
			l-4.342-2.714c-1.092,1.835-2.049,3.749-2.863,5.729L169.492,49.741z"/>
		<path fill-rule="evenodd" clip-rule="evenodd" fill="#0084C0" d="M177.738,37.318c1.281-1.295,2.65-2.504,4.111-3.615
			l-2.994-4.166c-1.73,1.31-3.35,2.737-4.854,4.273L177.738,37.318z"/>
		<path fill-rule="evenodd" clip-rule="evenodd" fill="#0084C0" d="M167.215,57.338c0.373-1.952,0.893-3.858,1.551-5.709
			l-4.785-1.841c-0.785,2.18-1.4,4.423-1.836,6.721L167.215,57.338z"/>
		<path fill-rule="evenodd" clip-rule="evenodd" fill="#2F87A7" d="M183.488,32.524c1.621-1.104,3.336-2.089,5.137-2.946
			l-2.094-4.697c-2.125,1.005-4.137,2.168-6.035,3.476L183.488,32.524z"/>
		<path fill-rule="evenodd" clip-rule="evenodd" fill="#69ACDF" d="M213.371,21.417l-0.83,5.065
			c1.953,0.374,3.861,0.894,5.715,1.553l1.836-4.787C217.914,22.468,215.668,21.849,213.371,21.417z"/>
		<path fill-rule="evenodd" clip-rule="evenodd" fill="#294F5F" d="M221.977,23.975l-1.836,4.784
			c1.674,0.697,3.291,1.505,4.85,2.424l2.717-4.341C225.871,25.75,223.955,24.792,221.977,23.975z"/>
		<path fill-rule="evenodd" clip-rule="evenodd" fill="#294F5F" d="M188.379,24.061l2.092,4.699
			c1.648-0.684,3.365-1.256,5.145-1.712l-1.158-5.012C192.355,22.572,190.326,23.249,188.379,24.061z"/>
		<path fill-rule="evenodd" clip-rule="evenodd" fill="#0084C0" d="M196.426,21.581l1.154,5.012c1.838-0.375,3.67-0.613,5.488-0.722
			l-0.16-5.138C200.756,20.853,198.594,21.134,196.426,21.581z"/>
		<path fill-rule="evenodd" clip-rule="evenodd" fill="#2F87A7" d="M204.926,20.668l0.164,5.138
			c1.842-0.013,3.664,0.107,5.459,0.351l0.83-5.065C209.256,20.79,207.102,20.649,204.926,20.668z"/>
		<path fill-rule="evenodd" clip-rule="evenodd" fill="#0084C0" d="M179.549,27.044c1.988-1.369,4.102-2.591,6.324-3.642
			l-2.385-5.358c-2.594,1.215-5.049,2.642-7.363,4.241L179.549,27.044z"/>
		<path fill-rule="evenodd" clip-rule="evenodd" fill="#2F87A7" d="M185.336,17.229l2.385,5.357
			c2.041-0.856,4.166-1.566,6.375-2.125l-1.318-5.717C190.199,15.392,187.715,16.227,185.336,17.229z"/>
		<path fill-rule="evenodd" clip-rule="evenodd" fill="#69ACDF" d="M194.746,14.293l1.316,5.712c2.271-0.47,4.539-0.765,6.793-0.888
			l-0.186-5.861C200.041,13.393,197.396,13.736,194.746,14.293z"/>
		<path fill-rule="evenodd" clip-rule="evenodd" fill="#2F87A7" d="M167.271,39.609c1.254-1.91,2.648-3.727,4.172-5.429
			l-4.277-4.012c-1.781,1.983-3.41,4.101-4.865,6.333L167.271,39.609z"/>
		<path fill-rule="evenodd" clip-rule="evenodd" fill="#294F5F" d="M204.691,13.19l0.182,5.864c2.285-0.024,4.543,0.127,6.766,0.442
			l0.943-5.784C209.99,13.336,207.354,13.157,204.691,13.19z"/>
		<path fill-rule="evenodd" clip-rule="evenodd" fill="#294F5F" d="M172.824,32.705c1.574-1.613,3.273-3.111,5.084-4.481
			l-3.424-4.758c-2.117,1.592-4.104,3.342-5.936,5.229L172.824,32.705z"/>
		<path fill-rule="evenodd" clip-rule="evenodd" fill="#0084C0" d="M233.381,21.569l-3.107,4.973
			c1.908,1.25,3.725,2.645,5.428,4.173l4.012-4.277"/>
		<path fill-rule="evenodd" clip-rule="evenodd" fill="#69ACDF" d="M224.656,16.996l-2.102,5.473
			c2.076,0.854,4.082,1.858,6.008,3.002l3.105-4.97C229.426,19.158,227.082,17.987,224.656,16.996z"/>
		<path fill-rule="evenodd" clip-rule="evenodd" fill="#2F87A7" d="M214.578,14.032l-0.945,5.79
			c2.404,0.449,4.756,1.097,7.035,1.918l2.105-5.47C220.117,15.306,217.381,14.55,214.578,14.032z"/>
		<path fill-rule="evenodd" clip-rule="evenodd" fill="#0084C0" d="M181.193,101.239l2.715-4.342
			c-1.539-1.021-3.004-2.149-4.383-3.377l-3.512,3.737C177.643,98.715,179.373,100.043,181.193,101.239z"/>
		<path fill-rule="evenodd" clip-rule="evenodd" fill="#294F5F" d="M188.635,105.175l1.836-4.785
			c-1.672-0.696-3.291-1.503-4.848-2.423l-2.715,4.345C184.744,103.401,186.656,104.357,188.635,105.175z"/>
		<path fill-rule="evenodd" clip-rule="evenodd" fill="#2F87A7" d="M229.416,27.912l-2.713,4.339
			c1.535,1.022,3.006,2.146,4.385,3.376l3.508-3.734C232.971,30.435,231.238,29.107,229.416,27.912z"/>
		<path fill-rule="evenodd" clip-rule="evenodd" fill="#2F87A7" d="M174.543,95.877l3.506-3.734
			c-1.295-1.281-2.506-2.652-3.617-4.111l-4.162,2.996C171.576,92.754,173.006,94.378,174.543,95.877z"/>
		<path fill-rule="evenodd" clip-rule="evenodd" fill="#69ACDF" d="M214.188,107.569l-1.158-5.014
			c-1.83,0.377-3.666,0.615-5.488,0.724l0.164,5.138C209.857,108.297,212.02,108.019,214.188,107.569z"/>
		<path fill-rule="evenodd" clip-rule="evenodd" fill="#2F87A7" d="M197.24,107.731l0.826-5.067
			c-1.949-0.369-3.855-0.889-5.709-1.55l-1.838,4.783C192.695,106.683,194.941,107.301,197.24,107.731z"/>
		<path fill-rule="evenodd" clip-rule="evenodd" fill="#0084C0" d="M230.121,100.792l-2.996-4.166
			c-1.623,1.103-3.336,2.09-5.137,2.949l2.088,4.694C226.207,103.265,228.219,102.1,230.121,100.792z"/>
		<path fill-rule="evenodd" clip-rule="evenodd" fill="#69ACDF" d="M232.873,91.835c-1.277,1.292-2.65,2.5-4.109,3.61l2.994,4.167
			c1.73-1.309,3.35-2.741,4.854-4.272L232.873,91.835z"/>
		<path fill-rule="evenodd" clip-rule="evenodd" fill="#294F5F" d="M241.117,79.407c-0.691,1.673-1.5,3.296-2.422,4.852l4.346,2.717
			c1.092-1.836,2.047-3.75,2.863-5.73L241.117,79.407z"/>
		<path fill-rule="evenodd" clip-rule="evenodd" fill="#2F87A7" d="M237.627,85.97c-1.018,1.54-2.145,3.007-3.375,4.39l3.74,3.507
			c1.451-1.627,2.779-3.359,3.979-5.18L237.627,85.97z"/>
		<path fill-rule="evenodd" clip-rule="evenodd" fill="#0084C0" d="M205.686,108.481l-0.162-5.139
			c-1.842,0.015-3.666-0.105-5.463-0.353l-0.826,5.068C201.357,108.357,203.508,108.502,205.686,108.481z"/>
		<path fill-rule="evenodd" clip-rule="evenodd" fill="#294F5F" d="M222.234,105.089l-2.094-4.697
			c-1.648,0.684-3.367,1.255-5.143,1.71l1.156,5.016C218.256,106.58,220.285,105.9,222.234,105.089z"/>
		<path fill-rule="evenodd" clip-rule="evenodd" fill="#69ACDF" d="M236.072,33.271l-3.508,3.74c1.293,1.276,2.5,2.65,3.613,4.111
			l4.166-2.998C239.033,36.396,237.607,34.774,236.072,33.271z"/>
		<path fill-rule="evenodd" clip-rule="evenodd" fill="#0084C0" d="M163.199,47.325c0.854-2.075,1.855-4.08,3.002-6.005
			l-4.969-3.108c-1.342,2.242-2.514,4.586-3.504,7.013L163.199,47.325z"/>
		<path fill-rule="evenodd" clip-rule="evenodd" fill="#2F87A7" d="M153.166,55.046c0.539-2.914,1.322-5.76,2.326-8.517
			l-5.852-2.246c-1.152,3.152-2.051,6.414-2.654,9.754L153.166,55.046z"/>
		<path fill-rule="evenodd" clip-rule="evenodd" fill="#69ACDF" d="M175.178,20.974c2.404-1.666,4.957-3.144,7.652-4.407
			l-2.539-5.716c-3.096,1.438-6.02,3.132-8.77,5.04L175.178,20.974z"/>
		<path fill-rule="evenodd" clip-rule="evenodd" fill="#294F5F" d="M184.678,15.753c2.475-1.045,5.057-1.91,7.734-2.58l-1.402-6.087
			c-3.078,0.765-6.037,1.758-8.871,2.957L184.678,15.753z"/>
		<path fill-rule="evenodd" clip-rule="evenodd" fill="#294F5F" d="M156.217,44.644c1.029-2.521,2.246-4.96,3.645-7.287
			l-5.318-3.323c-1.607,2.669-3.006,5.465-4.176,8.366L156.217,44.644z"/>
		<path fill-rule="evenodd" clip-rule="evenodd" fill="#0084C0" d="M160.932,35.644c1.514-2.317,3.203-4.519,5.059-6.583
			l-4.57-4.292c-2.137,2.36-4.076,4.885-5.805,7.55L160.932,35.644z"/>
		<path fill-rule="evenodd" clip-rule="evenodd" fill="#2F87A7" d="M167.373,27.585c1.906-1.957,3.965-3.776,6.17-5.432l-3.66-5.086
			c-2.535,1.894-4.9,3.979-7.08,6.229L167.373,27.585z"/>
		<path fill-rule="evenodd" clip-rule="evenodd" fill="#2F87A7" d="M176.373,108.949c-2.318-1.511-4.52-3.203-6.58-5.058
			l-4.293,4.57c2.363,2.139,4.885,4.077,7.549,5.804L176.373,108.949z"/>
		<path fill-rule="evenodd" clip-rule="evenodd" fill="#294F5F" d="M185.375,113.661c-2.521-1.026-4.957-2.242-7.287-3.641
			l-3.33,5.316c2.674,1.606,5.473,3.004,8.371,4.177L185.375,113.661z"/>
		<path fill-rule="evenodd" clip-rule="evenodd" fill="#69ACDF" d="M153.451,75.501c-0.586-2.756-0.938-5.509-1.078-8.238
			l-6.246,0.199c0.156,3.128,0.562,6.282,1.234,9.442L153.451,75.501z"/>
		<path fill-rule="evenodd" clip-rule="evenodd" fill="#0084C0" d="M152.307,65.242c-0.039-2.768,0.148-5.512,0.539-8.201
			l-6.18-1.007c-0.449,3.084-0.664,6.229-0.615,9.409L152.307,65.242z"/>
		<path fill-rule="evenodd" clip-rule="evenodd" fill="#69ACDF" d="M160.549,56.249c0.455-2.405,1.102-4.758,1.92-7.037L157,47.106
			c-0.965,2.656-1.717,5.395-2.238,8.2L160.549,56.249z"/>
		<path fill-rule="evenodd" clip-rule="evenodd" fill="#294F5F" d="M156.482,85.202c-1.041-2.475-1.908-5.053-2.58-7.735
			l-6.086,1.402c0.764,3.082,1.76,6.041,2.959,8.872L156.482,85.202z"/>
		<path fill-rule="evenodd" clip-rule="evenodd" fill="#0084C0" d="M161.703,94.701c-1.66-2.4-3.145-4.954-4.406-7.651l-5.713,2.543
			c1.438,3.095,3.129,6.019,5.035,8.766L161.703,94.701z"/>
		<path fill-rule="evenodd" clip-rule="evenodd" fill="#69ACDF" d="M168.314,102.507c-1.955-1.902-3.773-3.963-5.428-6.165
			l-5.086,3.657c1.893,2.535,3.977,4.899,6.229,7.079L168.314,102.507z"/>
		<path fill-rule="evenodd" clip-rule="evenodd" fill="#2F87A7" d="M185.955,112.154l2.102-5.475
			c-2.076-0.853-4.082-1.854-6.006-2.999l-3.105,4.969C181.186,109.993,183.529,111.164,185.955,112.154z"/>
		<path fill-rule="evenodd" clip-rule="evenodd" fill="#69ACDF" d="M169.086,89.39l4.168-2.997c-1.102-1.618-2.09-3.335-2.947-5.135
			l-4.695,2.091C166.617,85.472,167.781,87.486,169.086,89.39z"/>
		<path fill-rule="evenodd" clip-rule="evenodd" fill="#294F5F" d="M169.424,101.332l4.01-4.277
			c-1.607-1.573-3.107-3.272-4.479-5.083l-4.76,3.426C165.791,97.514,167.537,99.497,169.424,101.332z"/>
		<path fill-rule="evenodd" clip-rule="evenodd" fill="#69ACDF" d="M177.232,107.579l3.107-4.97
			c-1.908-1.252-3.725-2.647-5.432-4.173l-4.01,4.273C172.879,104.496,175.002,106.12,177.232,107.579z"/>
		<path fill-rule="evenodd" clip-rule="evenodd" fill="#69ACDF" d="M163.316,82.159c-0.854-2.042-1.566-4.17-2.125-6.372
			l-5.713,1.317c0.646,2.577,1.479,5.06,2.482,7.438L163.316,82.159z"/>
		<path fill-rule="evenodd" clip-rule="evenodd" fill="#2F87A7" d="M163.018,93.758l4.758-3.427
			c-1.369-1.986-2.594-4.099-3.641-6.326l-5.365,2.387C159.988,88.988,161.414,91.443,163.018,93.758z"/>
		<path fill-rule="evenodd" clip-rule="evenodd" fill="#294F5F" d="M159.783,65.006c-0.02-2.281,0.131-4.54,0.441-6.763
			l-5.785-0.943c-0.373,2.591-0.551,5.226-0.52,7.892L159.783,65.006z"/>
		<path fill-rule="evenodd" clip-rule="evenodd" fill="#69ACDF" d="M166.535,64.794c-0.014-1.841,0.107-3.668,0.35-5.464
			l-5.066-0.827c-0.297,2.121-0.439,4.276-0.422,6.451L166.535,64.794z"/>
		<path fill-rule="evenodd" clip-rule="evenodd" fill="#0084C0" d="M160.738,73.818c-0.471-2.271-0.768-4.54-0.889-6.792
			l-5.861,0.185c0.137,2.627,0.477,5.277,1.037,7.925L160.738,73.818z"/>
		<path fill-rule="evenodd" clip-rule="evenodd" fill="#294F5F" d="M164.793,81.503l4.693-2.087
			c-0.682-1.656-1.252-3.371-1.711-5.149l-5.01,1.156C163.303,77.525,163.98,79.555,164.793,81.503z"/>
		<path fill-rule="evenodd" clip-rule="evenodd" fill="#2F87A7" d="M167.322,72.299c-0.377-1.833-0.613-3.668-0.723-5.486
			l-5.133,0.161c0.117,2.149,0.395,4.315,0.846,6.482L167.322,72.299z"/>
		<path fill-rule="evenodd" clip-rule="evenodd" fill="#2F87A7" d="M215.867,114.859l-1.316-5.714
			c-2.271,0.471-4.541,0.763-6.793,0.888l0.188,5.858C210.57,115.756,213.215,115.415,215.867,114.859z"/>
		<path fill-rule="evenodd" clip-rule="evenodd" fill="#294F5F" d="M205.922,115.962l-0.186-5.863
			c-2.279,0.02-4.537-0.129-6.762-0.446l-0.943,5.787C200.621,115.813,203.26,115.994,205.922,115.962z"/>
		<path fill-rule="evenodd" clip-rule="evenodd" fill="#0084C0" d="M196.037,115.117l0.943-5.787
			c-2.404-0.454-4.756-1.1-7.039-1.918l-2.104,5.47C190.492,113.843,193.23,114.601,196.037,115.117z"/>
		<path fill-rule="evenodd" clip-rule="evenodd" fill="#69ACDF" d="M189.84,87.935c-1.107-0.736-2.164-1.543-3.16-2.433
			l-2.529,2.693c1.178,1.048,2.422,2.007,3.732,2.87L189.84,87.935z"/>
		<path fill-rule="evenodd" clip-rule="evenodd" fill="#294F5F" d="M194.564,90.45c-1.201-0.498-2.367-1.081-3.49-1.745
			l-1.955,3.128c1.322,0.787,2.699,1.479,4.129,2.063L194.564,90.45z"/>
		<path fill-rule="evenodd" clip-rule="evenodd" fill="#0084C0" d="M185.619,84.508c-0.936-0.92-1.805-1.907-2.605-2.958l-3,2.159
			c0.943,1.243,1.971,2.405,3.076,3.493L185.619,84.508z"/>
		<path fill-rule="evenodd" clip-rule="evenodd" fill="#0084C0" d="M200.041,92.092c-1.404-0.268-2.783-0.641-4.115-1.116
			l-1.318,3.444c1.568,0.564,3.182,1.011,4.842,1.319L200.041,92.092z"/>
		<path fill-rule="evenodd" clip-rule="evenodd" fill="#2F87A7" d="M182.164,80.364c-0.795-1.163-1.508-2.399-2.125-3.694
			l-3.381,1.506c0.725,1.529,1.562,2.979,2.504,4.35L182.164,80.364z"/>
		<path fill-rule="evenodd" clip-rule="evenodd" fill="#294F5F" d="M176.066,76.842l3.387-1.504
			c-0.494-1.19-0.906-2.428-1.236-3.708l-3.613,0.831C174.998,73.979,175.48,75.439,176.066,76.842z"/>
		<path fill-rule="evenodd" clip-rule="evenodd" fill="#0084C0" d="M178.217,83.207c-0.984-1.434-1.867-2.955-2.623-4.556
			l-3.861,1.713c0.875,1.874,1.902,3.644,3.059,5.311L178.217,83.207z"/>
		<path fill-rule="evenodd" clip-rule="evenodd" fill="#2F87A7" d="M171.146,79.036l3.857-1.718
			c-0.611-1.476-1.129-3.005-1.529-4.595l-4.117,0.948C169.822,75.531,170.422,77.323,171.146,79.036z"/>
		<path fill-rule="evenodd" clip-rule="evenodd" fill="#2F87A7" d="M187.268,92.052c-1.377-0.902-2.684-1.907-3.908-3.009
			l-2.893,3.082c1.432,1.286,2.953,2.458,4.559,3.508L187.268,92.052z"/>
		<path fill-rule="evenodd" clip-rule="evenodd" fill="#294F5F" d="M182.293,88.047c-1.16-1.129-2.24-2.354-3.225-3.661
			l-3.432,2.469c1.152,1.525,2.408,2.955,3.764,4.271L182.293,88.047z"/>
		<path fill-rule="evenodd" clip-rule="evenodd" fill="#0084C0" d="M192.828,94.981c-1.492-0.613-2.943-1.334-4.326-2.159
			l-2.242,3.58c1.621,0.969,3.307,1.81,5.053,2.524L192.828,94.981z"/>
		<path fill-rule="evenodd" clip-rule="evenodd" fill="#69ACDF" d="M199.258,96.89c-1.734-0.32-3.432-0.788-5.072-1.383
			l-1.516,3.942c1.918,0.696,3.889,1.239,5.91,1.615L199.258,96.89z"/>
		<path fill-rule="evenodd" clip-rule="evenodd" fill="#294F5F" d="M231.738,90.502l-3.084-2.891
			c-1.135,1.159-2.355,2.237-3.66,3.226l2.469,3.428C228.986,93.113,230.416,91.859,231.738,90.502z"/>
		<path fill-rule="evenodd" clip-rule="evenodd" fill="#69ACDF" d="M236.238,84.875l-3.58-2.24
			c-0.902,1.376-1.908,2.686-3.008,3.911l3.08,2.894C234.016,88.01,235.188,86.482,236.238,84.875z"/>
		<path fill-rule="evenodd" clip-rule="evenodd" fill="#69ACDF" d="M217.926,94.9c-1.473,0.615-3.006,1.129-4.59,1.532l0.949,4.114
			c1.854-0.467,3.641-1.065,5.355-1.789L217.926,94.9z"/>
		<path fill-rule="evenodd" clip-rule="evenodd" fill="#2F87A7" d="M226.281,95.116l-2.471-3.429
			c-1.43,0.986-2.953,1.865-4.553,2.624l1.717,3.861C222.84,97.296,224.615,96.27,226.281,95.116z"/>
		<path fill-rule="evenodd" clip-rule="evenodd" fill="#294F5F" d="M205.566,97.446c-1.643,0.014-3.271-0.093-4.871-0.319
			l-0.68,4.169c1.867,0.269,3.768,0.398,5.684,0.375L205.566,97.446z"/>
		<path fill-rule="evenodd" clip-rule="evenodd" fill="#69ACDF" d="M205.414,92.58c-1.326,0.01-2.643-0.075-3.936-0.255
			l-0.598,3.654c1.527,0.213,3.084,0.318,4.648,0.303L205.414,92.58z"/>
		<path fill-rule="evenodd" clip-rule="evenodd" fill="#0084C0" d="M211.916,96.759c-1.639,0.342-3.271,0.552-4.895,0.638
			l0.131,4.224c1.898-0.097,3.801-0.343,5.713-0.746L211.916,96.759z"/>
		<path fill-rule="evenodd" clip-rule="evenodd" fill="#2F87A7" d="M210.82,92.014c-1.322,0.269-2.641,0.441-3.951,0.521
			l0.115,3.701c1.547-0.087,3.105-0.292,4.672-0.61L210.82,92.014z"/>
		<path fill-rule="evenodd" clip-rule="evenodd" fill="#0084C0" d="M192.586,34.399c1.471-0.615,3.006-1.128,4.594-1.531
			l-0.949-4.116c-1.859,0.466-3.645,1.062-5.365,1.787L192.586,34.399z"/>
		<path fill-rule="evenodd" clip-rule="evenodd" fill="#69ACDF" d="M174.16,58.837l3.652,0.596c0.27-1.406,0.645-2.777,1.115-4.116
			l-3.445-1.322C174.918,55.564,174.477,57.183,174.16,58.837z"/>
		<path fill-rule="evenodd" clip-rule="evenodd" fill="#294F5F" d="M176.006,52.638l3.447,1.324
			c0.502-1.207,1.082-2.372,1.746-3.495l-3.133-1.959C177.285,49.833,176.598,51.213,176.006,52.638z"/>
		<path fill-rule="evenodd" clip-rule="evenodd" fill="#0084C0" d="M174.277,71.049l3.613-0.834
			c-0.271-1.324-0.441-2.644-0.52-3.954l-3.703,0.12C173.76,67.926,173.959,69.483,174.277,71.049z"/>
		<path fill-rule="evenodd" clip-rule="evenodd" fill="#69ACDF" d="M169.031,72.258l4.117-0.95c-0.338-1.639-0.553-3.27-0.645-4.89
			l-4.221,0.129C168.385,68.443,168.627,70.348,169.031,72.258z"/>
		<path fill-rule="evenodd" clip-rule="evenodd" fill="#294F5F" d="M168.234,65.095l4.227-0.134
			c-0.018-1.642,0.092-3.274,0.316-4.869l-4.162-0.683C168.338,61.273,168.211,63.173,168.234,65.095z"/>
		<path fill-rule="evenodd" clip-rule="evenodd" fill="#0084C0" d="M174.273,44.42l3.582,2.242c0.902-1.377,1.904-2.684,3.004-3.911
			l-3.078-2.892C176.494,41.289,175.322,42.813,174.273,44.42z"/>
		<path fill-rule="evenodd" clip-rule="evenodd" fill="#294F5F" d="M178.775,38.796l3.08,2.893c1.131-1.159,2.355-2.242,3.664-3.226
			l-2.467-3.432C181.523,36.178,180.098,37.439,178.775,38.796z"/>
		<path fill-rule="evenodd" clip-rule="evenodd" fill="#69ACDF" d="M184.23,34.183l2.467,3.428c1.438-0.986,2.955-1.868,4.561-2.623
			l-1.721-3.863C187.672,32.004,185.896,33.026,184.23,34.183z"/>
		<path fill-rule="evenodd" clip-rule="evenodd" fill="#69ACDF" d="M170.979,50.707l3.941,1.513
			c0.613-1.496,1.338-2.936,2.162-4.325l-3.582-2.238C172.535,47.271,171.693,48.961,170.979,50.707z"/>
		<path fill-rule="evenodd" clip-rule="evenodd" fill="#2F87A7" d="M168.84,57.969l4.176,0.681c0.322-1.733,0.787-3.428,1.379-5.071
			l-3.938-1.517C169.762,53.978,169.215,55.951,168.84,57.969z"/>
		<path fill-rule="evenodd" clip-rule="evenodd" fill="#2F87A7" d="M198.598,32.54c1.633-0.341,3.268-0.55,4.891-0.638l-0.133-4.222
			c-1.895,0.097-3.799,0.34-5.709,0.743L198.598,32.54z"/>
		<path fill-rule="evenodd" clip-rule="evenodd" fill="#2F87A7" d="M178.842,47.277l3.125,1.958c0.736-1.11,1.549-2.163,2.436-3.16
			l-2.695-2.526C180.66,44.719,179.703,45.965,178.842,47.277z"/>
		<path fill-rule="evenodd" clip-rule="evenodd" fill="#294F5F" d="M204.943,31.851c1.645-0.016,3.271,0.093,4.873,0.321
			l0.682-4.167c-1.865-0.271-3.766-0.4-5.688-0.377L204.943,31.851z"/>
		<path fill-rule="evenodd" clip-rule="evenodd" fill="#294F5F" d="M228.215,41.25c1.164,1.133,2.242,2.354,3.229,3.663l3.434-2.469
			c-1.152-1.526-2.414-2.956-3.771-4.275L228.215,41.25z"/>
		<path fill-rule="evenodd" clip-rule="evenodd" fill="#0084C0" d="M223.244,37.247c1.375,0.901,2.68,1.906,3.908,3.004l2.891-3.079
			c-1.43-1.285-2.957-2.46-4.561-3.508L223.244,37.247z"/>
		<path fill-rule="evenodd" clip-rule="evenodd" fill="#2F87A7" d="M211.254,32.407c1.732,0.325,3.428,0.79,5.07,1.384l1.516-3.947
			c-1.914-0.688-3.887-1.236-5.902-1.609L211.254,32.407z"/>
		<path fill-rule="evenodd" clip-rule="evenodd" fill="#69ACDF" d="M217.682,34.314c1.494,0.613,2.943,1.338,4.33,2.166l2.236-3.587
			c-1.615-0.963-3.305-1.807-5.049-2.523L217.682,34.314z"/>
	</g>
	
		<line fill="none" stroke="#294F5F" stroke-width="0.5" stroke-miterlimit="10" x1="140.477" y1="120.004" x2="140.477" y2="74.723"/>
	<g>
		<path fill="#294F5F" d="M24.635,75.772h0.453v9.312h-0.453V75.772z"/>
		<path fill="#294F5F" d="M35.93,75.772v9.312h-0.373l-6.612-8.487v8.487h-0.453v-9.312h0.373l6.612,8.487v-8.487H35.93z"/>
		<path fill="#294F5F" d="M41.105,76.185h-3.419v-0.412h7.277v0.412h-3.419v8.9h-0.439V76.185z"/>
		<path fill="#294F5F" d="M53.012,84.673v0.412h-6.293v-9.312h6.106v0.412h-5.654v3.965h5.055v0.412h-5.055v4.111H53.012z"/>
		<path fill="#294F5F" d="M62.151,85.085l-2.301-3.206c-0.302,0.053-0.639,0.08-1.011,0.08h-2.78v3.126h-0.453v-9.312h3.233
			c1.162,0,2.069,0.272,2.721,0.818c0.652,0.545,0.978,1.302,0.978,2.268c0,0.745-0.193,1.368-0.579,1.869
			c-0.386,0.502-0.938,0.85-1.656,1.045l2.381,3.312H62.151z M58.866,81.546c1.038,0,1.836-0.232,2.395-0.698
			s0.838-1.129,0.838-1.989c0-0.851-0.279-1.51-0.838-1.976c-0.559-0.465-1.357-0.698-2.395-0.698h-2.807v5.361H58.866z"/>
		<path fill="#294F5F" d="M72.595,75.772v9.312h-0.373l-6.612-8.487v8.487h-0.453v-9.312h0.373l6.612,8.487v-8.487H72.595z"/>
		<path fill="#294F5F" d="M81.708,82.357h-5.574l-1.25,2.728h-0.492l4.31-9.312h0.439l4.31,9.312h-0.492L81.708,82.357z
			 M81.535,81.972l-2.607-5.681l-2.621,5.681H81.535z"/>
		<path fill="#294F5F" d="M86.563,76.185h-3.419v-0.412h7.277v0.412h-3.419v8.9h-0.439V76.185z"/>
		<path fill="#294F5F" d="M92.177,75.772h0.453v9.312h-0.453V75.772z"/>
		<path fill="#294F5F" d="M97.439,84.526c-0.732-0.408-1.306-0.972-1.723-1.689c-0.417-0.719-0.625-1.521-0.625-2.408
			s0.208-1.689,0.625-2.408c0.417-0.718,0.991-1.281,1.723-1.689c0.731-0.408,1.55-0.612,2.455-0.612s1.725,0.204,2.461,0.612
			s1.312,0.972,1.729,1.689c0.417,0.719,0.625,1.521,0.625,2.408s-0.208,1.689-0.625,2.408c-0.417,0.718-0.993,1.281-1.729,1.689
			s-1.556,0.611-2.461,0.611S98.17,84.935,97.439,84.526z M102.115,84.167c0.665-0.372,1.188-0.887,1.57-1.543
			s0.572-1.389,0.572-2.195s-0.19-1.539-0.572-2.195s-0.905-1.171-1.57-1.543c-0.665-0.373-1.406-0.559-2.222-0.559
			c-0.816,0-1.555,0.186-2.215,0.559c-0.661,0.372-1.182,0.887-1.563,1.543s-0.572,1.389-0.572,2.195s0.191,1.539,0.572,2.195
			s0.902,1.171,1.563,1.543s1.399,0.559,2.215,0.559C100.709,84.726,101.45,84.539,102.115,84.167z"/>
		<path fill="#294F5F" d="M114.607,75.772v9.312h-0.373l-6.612-8.487v8.487h-0.452v-9.312h0.372l6.612,8.487v-8.487H114.607z"/>
		<path fill="#294F5F" d="M123.721,82.357h-5.574l-1.252,2.728h-0.492l4.311-9.312h0.439l4.311,9.312h-0.492L123.721,82.357z
			 M123.547,81.972l-2.607-5.681l-2.621,5.681H123.547z"/>
		<path fill="#294F5F" d="M127.271,75.772h0.453v8.9h5.453v0.412h-5.906V75.772z"/>
		<path fill="#294F5F" d="M81.382,100.491c-0.732-0.408-1.306-0.972-1.723-1.689c-0.417-0.719-0.625-1.521-0.625-2.408
			s0.208-1.689,0.625-2.408c0.417-0.718,0.991-1.281,1.723-1.689c0.731-0.408,1.55-0.612,2.455-0.612
			c0.639,0,1.237,0.104,1.796,0.313c0.559,0.208,1.038,0.517,1.437,0.924l-0.28,0.293c-0.771-0.745-1.751-1.117-2.94-1.117
			c-0.816,0-1.557,0.188-2.222,0.565s-1.188,0.894-1.57,1.55s-0.572,1.384-0.572,2.182s0.191,1.525,0.572,2.182
			s0.905,1.173,1.57,1.55s1.406,0.565,2.222,0.565c1.18,0,2.16-0.377,2.94-1.131l0.28,0.293c-0.399,0.408-0.876,0.719-1.43,0.932
			c-0.555,0.213-1.156,0.318-1.803,0.318C82.932,101.103,82.113,100.899,81.382,100.491z"/>
		<path fill="#294F5F" d="M95.756,100.638v0.412h-6.293v-9.312h6.106v0.412h-5.654v3.965h5.055v0.412h-5.055v4.111H95.756z"/>
		<path fill="#294F5F" d="M105.788,91.737v9.312h-0.372l-6.612-8.487v8.487h-0.453v-9.312h0.373l6.612,8.487v-8.487H105.788z"/>
		<path fill="#294F5F" d="M110.962,92.149h-3.42v-0.412h7.278v0.412h-3.419v8.9h-0.438V92.149z"/>
		<path fill="#294F5F" d="M122.869,100.638v0.412h-6.293v-9.312h6.107v0.412h-5.654v3.965h5.055v0.412h-5.055v4.111H122.869z"/>
		<path fill="#294F5F" d="M132.008,101.05l-2.301-3.206c-0.301,0.053-0.639,0.08-1.012,0.08h-2.779v3.126h-0.453v-9.312h3.232
			c1.162,0,2.068,0.272,2.721,0.818c0.652,0.545,0.979,1.302,0.979,2.268c0,0.745-0.193,1.368-0.578,1.869
			c-0.387,0.502-0.939,0.85-1.656,1.045l2.381,3.312H132.008z M128.723,97.511c1.037,0,1.836-0.232,2.395-0.698
			s0.838-1.129,0.838-1.989c0-0.851-0.279-1.51-0.838-1.976c-0.559-0.465-1.357-0.698-2.395-0.698h-2.807v5.361H128.723z"/>
		<path fill="#294F5F" d="M16.048,108.52c0.652,0.545,0.978,1.302,0.978,2.268c0,0.977-0.326,1.736-0.978,2.282
			c-0.652,0.545-1.559,0.818-2.721,0.818h-2.78v3.126h-0.453v-9.312h3.233C14.49,107.701,15.396,107.974,16.048,108.52z
			 M15.749,112.776c0.559-0.466,0.838-1.129,0.838-1.989c0-0.851-0.279-1.51-0.838-1.976c-0.559-0.465-1.357-0.698-2.395-0.698
			h-2.807v5.361h2.807C14.392,113.475,15.19,113.242,15.749,112.776z"/>
		<path fill="#294F5F" d="M19.434,107.701h0.453v9.312h-0.453V107.701z"/>
		<path fill="#294F5F" d="M29.585,116.602v0.412h-6.293v-9.312h6.106v0.412h-5.654v3.965H28.8v0.412h-5.055v4.111H29.585z"/>
		<path fill="#294F5F" d="M38.724,117.014l-2.301-3.206c-0.302,0.053-0.639,0.08-1.011,0.08h-2.78v3.126h-0.453v-9.312h3.233
			c1.162,0,2.069,0.272,2.721,0.818c0.652,0.545,0.978,1.302,0.978,2.268c0,0.745-0.193,1.368-0.579,1.869
			c-0.386,0.502-0.938,0.85-1.656,1.045l2.381,3.312H38.724z M35.438,113.475c1.038,0,1.836-0.232,2.395-0.698
			s0.838-1.129,0.838-1.989c0-0.851-0.279-1.51-0.838-1.976c-0.559-0.465-1.357-0.698-2.395-0.698h-2.807v5.361H35.438z"/>
		<path fill="#294F5F" d="M43.134,116.455c-0.732-0.408-1.306-0.972-1.723-1.689c-0.417-0.719-0.625-1.521-0.625-2.408
			s0.208-1.689,0.625-2.408c0.417-0.718,0.991-1.281,1.723-1.689c0.731-0.408,1.55-0.612,2.455-0.612s1.725,0.204,2.461,0.612
			s1.312,0.972,1.729,1.689c0.417,0.719,0.625,1.521,0.625,2.408s-0.208,1.689-0.625,2.408c-0.417,0.718-0.993,1.281-1.729,1.689
			s-1.556,0.611-2.461,0.611S43.866,116.863,43.134,116.455z M47.811,116.096c0.665-0.372,1.188-0.887,1.57-1.543
			s0.572-1.389,0.572-2.195s-0.19-1.539-0.572-2.195s-0.905-1.171-1.57-1.543c-0.665-0.373-1.406-0.559-2.222-0.559
			c-0.816,0-1.555,0.186-2.215,0.559c-0.661,0.372-1.182,0.887-1.563,1.543s-0.572,1.389-0.572,2.195s0.191,1.539,0.572,2.195
			s0.902,1.171,1.563,1.543s1.399,0.559,2.215,0.559C46.405,116.654,47.146,116.468,47.811,116.096z"/>
		<path fill="#294F5F" d="M57.635,116.455c-0.732-0.408-1.306-0.972-1.723-1.689c-0.417-0.719-0.625-1.521-0.625-2.408
			s0.208-1.689,0.625-2.408c0.417-0.718,0.991-1.281,1.723-1.689c0.731-0.408,1.55-0.612,2.455-0.612
			c0.639,0,1.237,0.104,1.796,0.313c0.559,0.208,1.038,0.517,1.437,0.924l-0.28,0.293c-0.771-0.745-1.751-1.117-2.94-1.117
			c-0.816,0-1.557,0.188-2.222,0.565s-1.188,0.894-1.57,1.55s-0.572,1.384-0.572,2.182s0.191,1.525,0.572,2.182
			s0.905,1.173,1.57,1.55s1.406,0.565,2.222,0.565c1.18,0,2.16-0.377,2.94-1.131l0.28,0.293c-0.399,0.408-0.876,0.719-1.43,0.932
			c-0.555,0.213-1.156,0.318-1.803,0.318C59.185,117.066,58.367,116.863,57.635,116.455z"/>
		<path fill="#294F5F" d="M71.171,114.286h-5.574l-1.25,2.728h-0.492l4.31-9.312h0.439l4.31,9.312h-0.492L71.171,114.286z
			 M70.999,113.9l-2.607-5.681L65.77,113.9H70.999z"/>
		<path fill="#294F5F" d="M74.724,107.701h0.453v8.9h5.455v0.412h-5.907V107.701z"/>
		<path fill="#294F5F" d="M82.466,107.701h3.592c0.966,0,1.825,0.199,2.574,0.599s1.331,0.951,1.743,1.656
			c0.413,0.705,0.619,1.506,0.619,2.401s-0.206,1.696-0.619,2.401c-0.412,0.705-0.993,1.257-1.743,1.656s-1.608,0.599-2.574,0.599
			h-3.592V107.701z M86.031,116.602c0.905,0,1.696-0.182,2.375-0.546c0.678-0.363,1.204-0.866,1.576-1.51
			c0.373-0.643,0.559-1.372,0.559-2.188s-0.187-1.545-0.559-2.188c-0.372-0.643-0.898-1.146-1.576-1.51
			c-0.679-0.364-1.47-0.546-2.375-0.546h-3.113v8.488H86.031z"/>
		<path fill="#294F5F" d="M93.455,107.701h0.453v9.312h-0.453V107.701z"/>
		<path fill="#294F5F" d="M103.858,117.014l-2.301-3.206c-0.302,0.053-0.639,0.08-1.011,0.08h-2.78v3.126h-0.453v-9.312h3.233
			c1.162,0,2.069,0.272,2.721,0.818c0.652,0.545,0.978,1.302,0.978,2.268c0,0.745-0.193,1.368-0.579,1.869
			c-0.386,0.502-0.938,0.85-1.656,1.045l2.381,3.312H103.858z M100.572,113.475c1.038,0,1.836-0.232,2.395-0.698
			s0.838-1.129,0.838-1.989c0-0.851-0.279-1.51-0.838-1.976c-0.559-0.465-1.357-0.698-2.395-0.698h-2.807v5.361H100.572z"/>
		<path fill="#294F5F" d="M108.268,116.455c-0.731-0.408-1.306-0.972-1.723-1.689c-0.417-0.719-0.625-1.521-0.625-2.408
			s0.208-1.689,0.625-2.408c0.417-0.718,0.991-1.281,1.723-1.689s1.55-0.612,2.454-0.612c0.905,0,1.725,0.204,2.461,0.612
			s1.312,0.972,1.73,1.689c0.416,0.719,0.625,1.521,0.625,2.408s-0.209,1.689-0.625,2.408c-0.418,0.718-0.994,1.281-1.73,1.689
			s-1.556,0.611-2.461,0.611C109.818,117.066,109,116.863,108.268,116.455z M112.943,116.096c0.666-0.372,1.189-0.887,1.57-1.543
			s0.572-1.389,0.572-2.195s-0.191-1.539-0.572-2.195s-0.904-1.171-1.57-1.543c-0.664-0.373-1.405-0.559-2.221-0.559
			c-0.815,0-1.554,0.186-2.215,0.559c-0.661,0.372-1.182,0.887-1.563,1.543c-0.381,0.656-0.571,1.389-0.571,2.195
			s0.19,1.539,0.571,2.195c0.382,0.656,0.902,1.171,1.563,1.543s1.399,0.559,2.215,0.559
			C111.539,116.654,112.279,116.468,112.943,116.096z"/>
		<path fill="#294F5F" d="M118,107.701h0.451v8.9h5.455v0.412H118V107.701z"/>
		<path fill="#294F5F" d="M131.463,114.286h-5.574l-1.252,2.728h-0.492l4.311-9.312h0.439l4.311,9.312h-0.492L131.463,114.286z
			 M131.289,113.9l-2.607-5.681l-2.621,5.681H131.289z"/>
	</g>
	<g>
		<g>
			<g>
				<path fill="#294F5F" stroke="#294F5F" stroke-miterlimit="10" d="M200.152,53.505h7.004v20.779h-7.004V53.505z"/>
				<path fill="#294F5F" stroke="#294F5F" stroke-miterlimit="10" d="M215.35,73.379c-1.762-0.92-3.143-2.206-4.141-3.859
					c-1-1.651-1.5-3.527-1.5-5.625c0-2.097,0.5-3.972,1.5-5.625c0.998-1.652,2.379-2.938,4.141-3.859
					c1.76-0.92,3.74-1.38,5.936-1.38c2.02,0,3.82,0.356,5.402,1.069c1.584,0.712,2.891,1.742,3.92,3.087l-4.424,3.948
					c-1.287-1.623-2.801-2.434-4.541-2.434c-1.465,0-2.643,0.47-3.533,1.41c-0.891,0.94-1.336,2.202-1.336,3.785
					c0,1.584,0.445,2.846,1.336,3.785s2.068,1.41,3.533,1.41c1.74,0,3.254-0.812,4.541-2.435l4.424,3.948
					c-1.029,1.346-2.336,2.375-3.92,3.087c-1.582,0.713-3.383,1.068-5.402,1.068C219.09,74.759,217.109,74.299,215.35,73.379z"/>
				<path fill="#294F5F" stroke="#294F5F" stroke-miterlimit="10" d="M247.645,54.455c1.426,0.634,2.523,1.544,3.295,2.731
					c0.773,1.188,1.158,2.573,1.158,4.156c0,1.583-0.385,2.969-1.158,4.156c-0.771,1.187-1.869,2.098-3.295,2.73
					c-1.424,0.634-3.096,0.95-5.016,0.95h-2.998v5.105h-7.006V53.505h10.004C244.549,53.505,246.221,53.822,247.645,54.455z
					 M244.32,63.138c0.475-0.425,0.713-1.024,0.713-1.796c0-0.771-0.238-1.37-0.713-1.796c-0.475-0.425-1.188-0.638-2.137-0.638
					h-2.553v4.868h2.553C243.133,63.776,243.846,63.563,244.32,63.138z"/>
				<path fill="#294F5F" stroke="#294F5F" stroke-miterlimit="10" d="M259.49,73.379c-1.762-0.92-3.143-2.206-4.141-3.859
					c-1-1.651-1.5-3.527-1.5-5.625c0-2.097,0.5-3.972,1.5-5.625c0.998-1.652,2.379-2.938,4.141-3.859
					c1.76-0.92,3.74-1.38,5.936-1.38c2.02,0,3.82,0.356,5.402,1.069c1.584,0.712,2.891,1.742,3.92,3.087l-4.424,3.948
					c-1.287-1.623-2.801-2.434-4.541-2.434c-1.465,0-2.643,0.47-3.533,1.41c-0.891,0.94-1.336,2.202-1.336,3.785
					c0,1.584,0.445,2.846,1.336,3.785s2.068,1.41,3.533,1.41c1.74,0,3.254-0.812,4.541-2.435l4.424,3.948
					c-1.029,1.346-2.336,2.375-3.92,3.087c-1.582,0.713-3.383,1.068-5.402,1.068C263.23,74.759,261.25,74.299,259.49,73.379z"/>
			</g>
		</g>
	</g>
</g>
</svg>
